<svg xmlns="http://www.w3.org/2000/svg" width="100" height="100" viewBox="0 0 100 100">
    <g fill="none" fill-rule="evenodd">
        <circle cx="50" cy="50" r="50" fill="#0681FF"/>
        <g transform="translate(22 22)">
            <path d="M0 0h56v56H0z"/>
            <path d="M35 6l15 15c2.792-5.927 4.474-12.554 5.045-19.88C47.956 1.33 41.275 2.957 35 6z"/>
            <path stroke="#FFF" stroke-width="2" d="M35 6l15 15"/>
            <path stroke="#FFF" stroke-linecap="square" stroke-width="2" d="M28 9.591C20.736 6.52 11.988 7.895 6.056 13.723A19.553 19.553 0 0 0 3 17.629L11.523 26M46.356 28c3.142 7.259 1.778 16.013-4.072 21.957A19.5 19.5 0 0 1 38.386 53L30 44.479"/>
            <path stroke="#FFF" stroke-linecap="square" stroke-width="2" d="M23.154 47L9 32.846S21.09 2.769 55 1c-1.917 33.763-31.846 46-31.846 46z"/>
            <circle cx="31" cy="24" r="5" stroke="#FFF" stroke-linecap="square" stroke-width="2"/>
            <path stroke="#FFF" stroke-linecap="square" stroke-width="2" d="M1 49a6 6 0 1 1 6 6H1v-6z"/>
        </g>
    </g>
</svg>
