<svg xmlns="http://www.w3.org/2000/svg" width="100" height="100" viewBox="0 0 100 100">
    <g fill="none" fill-rule="evenodd">
        <circle cx="50" cy="50" r="50" fill="#0681FF"/>
        <g transform="translate(22 22)">
            <path d="M0 0h56v56H0z"/>
            <circle cx="45" cy="24" r="5" stroke="#FFF" stroke-width="2"/>
            <path stroke="#FFF" stroke-width="2" d="M42 43h13v-4.972c0-1.183-.62-2.271-1.638-2.875C51.74 34.195 48.93 33 45 33c-3.98 0-6.773 1.188-8.377 2.147A3.33 3.33 0 0 0 35 38.012V39"/>
            <circle cx="11" cy="24" r="5" stroke="#FFF" stroke-width="2"/>
            <path stroke="#FFF" stroke-width="2" d="M21 38.5v-.472c0-1.183-.62-2.271-1.638-2.875C17.74 34.195 14.93 33 11 33c-3.98 0-6.773 1.188-8.377 2.147A3.33 3.33 0 0 0 1 38.012V43h13"/>
            <circle cx="19" cy="9" r="5" stroke="#FFF" stroke-width="2"/>
            <circle cx="37" cy="9" r="5" stroke="#FFF" stroke-width="2"/>
            <circle cx="28" cy="27" r="7" stroke="#FFF" stroke-width="2"/>
            <path stroke="#FFF" stroke-width="2" d="M42 52v-6.96c0-1.657-.868-3.18-2.294-4.025C37.436 39.673 33.502 38 28 38c-5.572 0-9.483 1.664-11.727 3.005A4.662 4.662 0 0 0 14 45.016V52h28z"/>
        </g>
    </g>
</svg>
