<?xml version="1.0" encoding="utf-8"?>
<!-- Generator: Adobe Illustrator 16.0.3, SVG Export Plug-In . SVG Version: 6.00 Build 0)  -->
<!DOCTYPE svg PUBLIC "-//W3C//DTD SVG 1.1//EN" "http://www.w3.org/Graphics/SVG/1.1/DTD/svg11.dtd">
<svg version="1.1" id="Layer_1" xmlns="http://www.w3.org/2000/svg" xmlns:xlink="http://www.w3.org/1999/xlink" x="0px" y="0px"
	 width="16px" height="17.875px" viewBox="0 0 16 17.875" enable-background="new 0 0 16 17.875" xml:space="preserve">
<g>
	<path fill="#484850" d="M3.375,6.688c0.776,0,1.406-0.63,1.406-1.406V1.406C4.781,0.63,4.151,0,3.375,0S1.969,0.63,1.969,1.406
		v3.875C1.969,6.058,2.599,6.688,3.375,6.688z"/>
	<path fill="#484850" d="M6.75,12.375C6.75,10.511,5.239,9,3.375,9S0,10.511,0,12.375c0,1.36,0.81,2.525,1.969,3.06v1.034
		c0,0.776,0.63,1.406,1.406,1.406s1.406-0.63,1.406-1.406v-1.034C5.94,14.9,6.75,13.735,6.75,12.375z"/>
</g>
<g>
	<path fill="#484850" d="M12.625,11.188c-0.776,0-1.406,0.63-1.406,1.406v3.875c0,0.776,0.63,1.406,1.406,1.406
		s1.406-0.63,1.406-1.406v-3.875C14.031,11.817,13.401,11.188,12.625,11.188z"/>
	<path fill="#484850" d="M9.25,5.5c0,1.864,1.511,3.375,3.375,3.375S16,7.364,16,5.5c0-1.36-0.81-2.525-1.969-3.06V1.406
		C14.031,0.63,13.401,0,12.625,0s-1.406,0.63-1.406,1.406V2.44C10.06,2.975,9.25,4.14,9.25,5.5z"/>
</g>
</svg>
